<svg xmlns="http://www.w3.org/2000/svg" id="Layer_1" data-name="Layer 1" viewBox="133.35 134.35 467.26 310.01">
  <defs>
    <style>
      .cls-1 {
        fill: #FFFFFF;
        stroke-width: 0px;
      }
    </style>
  </defs>
  <g>
    <path class="cls-1" d="M367,302.34c-37.02.01-66.97,29.89-66.99,66.81-.01,37.07,29.81,67.01,66.75,67.01,37.04,0,67.11-29.87,67.12-66.68.01-37.06-29.97-67.15-66.89-67.14Z"/>
    <path class="cls-1" d="M524.29,291.97c-41.4-.15-75.96-31.16-80.66-72.31-.45-3.94-.37-7.9-.52-11.85,0-.16.01-.31.01-.47-.22-11.11-3.07-22.2-8.69-32.47-5.97-11.57-14.88-21.13-26.8-28.53-11.58-7.43-24.63-11.46-37.91-11.93-15.38-.6-30.69,3.6-44,12.32-11.55,7.31-20.23,16.67-26.1,27.95-5.68,10.33-8.57,21.48-8.79,32.66,0,.16.01.32.01.48-.15,3.95-.07,7.92-.52,11.86-4.7,41.15-39.27,72.16-80.66,72.31-45.42.17-80.46,38.36-75.91,83.51,2.89,28.67,17.88,49.76,44.04,61.79,50.68,23.29,107.74-13.74,107.8-69.51,0-5.19.47-10.35,1.54-15.42,8.18-38.83,40.37-65.15,80.04-65.51,39.49.52,71.51,26.79,79.66,65.5,1.07,5.08,1.54,10.23,1.54,15.42.06,55.77,57.12,92.8,107.8,69.51,26.16-12.03,41.15-33.12,44.04-61.79,4.55-45.16-30.49-83.35-75.91-83.51Z"/>
    <path class="cls-1" d="M525.16,277.16c37.04,0,67.11-29.87,67.12-66.68.01-37.06-29.97-67.15-66.89-67.14-37.02.01-66.97,29.89-66.99,66.81-.01,37.07,29.81,67.01,66.75,67.01Z"/>
    <path class="cls-1" d="M208.89,277.16c37.04,0,67.11-29.87,67.12-66.68.01-37.06-29.97-67.15-66.89-67.14-37.02.01-66.97,29.89-66.99,66.81-.01,37.07,29.81,67.01,66.75,67.01Z"/>
  </g>
</svg>